<svg xmlns="http://www.w3.org/2000/svg" width="25" height="15.626" viewBox="0 0 25 15.626">
  <g id="behance" transform="translate(0 -95.979)">
    <g id="Group_34" data-name="Group 34" transform="translate(0 95.979)">
      <g id="Group_33" data-name="Group 33">
        <path id="Path_249" data-name="Path 249" d="M10.285,103.042a3.75,3.75,0,0,0,1.18-.866,3.363,3.363,0,0,0,.714-2.245,3.843,3.843,0,0,0-.708-2.327,4.769,4.769,0,0,0-4.005-1.625H0v15.24H6.962a10.885,10.885,0,0,0,2.183-.2,4.293,4.293,0,0,0,1.745-.766,4.226,4.226,0,0,0,1.094-1.2,4.4,4.4,0,0,0,.689-2.43,4,4,0,0,0-.6-2.233A3.473,3.473,0,0,0,10.285,103.042ZM3.08,98.626H6.443a5.929,5.929,0,0,1,1.827.238,1.367,1.367,0,0,1,.83,1.409,1.435,1.435,0,0,1-.628,1.338,3.152,3.152,0,0,1-1.635.378H3.08Zm5.318,9.68a3.683,3.683,0,0,1-1.566.269H3.08v-4.064h3.8a3.969,3.969,0,0,1,1.547.256,1.634,1.634,0,0,1,.983,1.636A1.916,1.916,0,0,1,8.4,108.307Z" transform="translate(0 -95.979)"/>
        <rect id="Rectangle_212" data-name="Rectangle 212" width="6.621" height="1.897" transform="translate(15.976 0.711)"/>
        <path id="Path_250" data-name="Path 250" d="M291.1,175.7a5.437,5.437,0,0,0-.913-2.33,4.6,4.6,0,0,0-1.972-1.667,6.528,6.528,0,0,0-2.688-.528,5.562,5.562,0,0,0-4.085,1.563,6.062,6.062,0,0,0-1.574,4.494q0,3.124,1.745,4.511a6.27,6.27,0,0,0,4.024,1.386,5.6,5.6,0,0,0,4.3-1.642,3.7,3.7,0,0,0,1.106-2.038H288a2.46,2.46,0,0,1-.616.775,2.553,2.553,0,0,1-1.656.516,3.062,3.062,0,0,1-1.649-.425,2.692,2.692,0,0,1-1.2-2.377H291.2A14.338,14.338,0,0,0,291.1,175.7Zm-8.149.292a3.055,3.055,0,0,1,.8-1.744,2.4,2.4,0,0,1,1.783-.645,2.652,2.652,0,0,1,1.774.606,2.465,2.465,0,0,1,.8,1.783Z" transform="translate(-266.205 -167.507)"/>
      </g>
    </g>
  </g>
</svg>
