<svg xmlns="http://www.w3.org/2000/svg" width="24.995" height="25" viewBox="0 0 24.995 25">
  <g id="instagram_1_" data-name="instagram (1)" transform="translate(-0.449)">
    <path id="Path_251" data-name="Path 251" d="M25.38,7.35A9.135,9.135,0,0,0,24.8,4.317,6.4,6.4,0,0,0,21.141.659,9.159,9.159,0,0,0,18.108.078C16.77.015,16.345,0,12.951,0S9.132.015,7.8.073A9.138,9.138,0,0,0,4.766.654,6.1,6.1,0,0,0,2.549,2.1,6.155,6.155,0,0,0,1.108,4.312,9.16,9.16,0,0,0,.527,7.345C.463,8.683.449,9.108.449,12.5s.015,3.819.073,5.152A9.135,9.135,0,0,0,1.1,20.688a6.4,6.4,0,0,0,3.658,3.658,9.16,9.16,0,0,0,3.033.581c1.333.059,1.758.073,5.152.073s3.819-.014,5.152-.073a9.133,9.133,0,0,0,3.033-.581,6.4,6.4,0,0,0,3.658-3.658,9.166,9.166,0,0,0,.581-3.033c.059-1.333.073-1.758.073-5.152s0-3.819-.064-5.152ZM23.129,17.557a6.852,6.852,0,0,1-.43,2.32,4.147,4.147,0,0,1-2.374,2.374,6.877,6.877,0,0,1-2.32.43c-1.319.059-1.714.073-5.05.073s-3.736-.014-5.05-.073a6.849,6.849,0,0,1-2.32-.43,3.847,3.847,0,0,1-1.436-.933,3.887,3.887,0,0,1-.933-1.436,6.878,6.878,0,0,1-.43-2.32c-.059-1.319-.073-1.714-.073-5.05s.014-3.736.073-5.05a6.849,6.849,0,0,1,.43-2.32,3.8,3.8,0,0,1,.938-1.436,3.881,3.881,0,0,1,1.436-.933,6.881,6.881,0,0,1,2.32-.43c1.319-.059,1.714-.073,5.05-.073s3.736.015,5.05.073a6.852,6.852,0,0,1,2.32.43,3.844,3.844,0,0,1,1.436.933A3.886,3.886,0,0,1,22.7,5.143a6.88,6.88,0,0,1,.43,2.32c.059,1.319.073,1.714.073,5.05s-.015,3.726-.073,5.045Zm0,0" transform="translate(0)" fill="#e4405f"/>
    <path id="Path_252" data-name="Path 252" d="M131.371,124.5a6.422,6.422,0,1,0,6.422,6.422A6.424,6.424,0,0,0,131.371,124.5Zm0,10.588a4.166,4.166,0,1,1,4.166-4.166A4.167,4.167,0,0,1,131.371,135.088Zm0,0" transform="translate(-118.42 -118.42)" fill="#e4405f"/>
    <path id="Path_253" data-name="Path 253" d="M365.448,90.1a1.5,1.5,0,1,1-1.5-1.5A1.5,1.5,0,0,1,365.448,90.1Zm0,0" transform="translate(-344.322 -84.275)" fill="#e4405f"/>
  </g>
</svg>
