<svg xmlns="http://www.w3.org/2000/svg" width="25" height="25" viewBox="0 0 25 25">
  <g id="link" transform="translate(-0.001)">
    <path id="Path_254" data-name="Path 254" d="M190.838,1.716,185.756,6.8c-.01.01-.016.022-.026.031a7.343,7.343,0,0,1,3.73.408l3.449-3.449a2.93,2.93,0,0,1,4.143,4.143l-5.081,5.081a2.961,2.961,0,0,1-4.143,0,1.467,1.467,0,0,0-2.072,0l-.889.889a5.81,5.81,0,0,0,.889,1.182,5.9,5.9,0,0,0,8.255.026c.01-.01.022-.016.031-.026L199.124,10a5.859,5.859,0,1,0-8.286-8.286Z" transform="translate(-175.84 0)" fill="#ff9a36"/>
    <path id="Path_255" data-name="Path 255" d="M11.392,177.631l-3.46,3.46a2.93,2.93,0,0,1-4.143-4.143l5.092-5.092a2.961,2.961,0,0,1,4.143,0,1.467,1.467,0,0,0,2.072,0l.889-.889a5.807,5.807,0,0,0-.889-1.182,5.9,5.9,0,0,0-8.255-.026c-.01.01-.022.016-.031.026l-5.092,5.092A5.859,5.859,0,1,0,10,183.163L15.1,178.07c.01-.01.016-.022.026-.031a7.343,7.343,0,0,1-3.73-.408Z" transform="translate(0 -159.879)" fill="#ff9a36"/>
  </g>
</svg>
